<?xml version="1.0" standalone="no"?>
<!DOCTYPE svg PUBLIC "-//W3C//DTD SVG 20010904//EN"
 "http://www.w3.org/TR/2001/REC-SVG-20010904/DTD/svg10.dtd">
<svg version="1.0" xmlns="http://www.w3.org/2000/svg"
 width="640.000000pt" height="1280.000000pt" viewBox="0 0 640.000000 1280.000000"
 preserveAspectRatio="xMidYMid meet">
<g transform="translate(0.000000,1280.000000) scale(0.100000,-0.100000)"
fill="#000000" stroke="none">
<path d="M1945 12790 c-27 -4 -95 -13 -150 -20 -478 -58 -861 -222 -1135 -487
-239 -230 -369 -490 -426 -848 -26 -167 -38 -654 -25 -1050 32 -972 151 -1742
372 -2407 126 -379 213 -559 487 -1008 638 -1045 1191 -1715 1787 -2167 346
-261 704 -426 1060 -488 49 -8 93 -19 97 -23 4 -4 8 -122 9 -263 l2 -257 -41
-62 c-23 -34 -47 -81 -53 -103 -32 -120 35 -238 177 -308 78 -38 172 -48 465
-49 193 0 217 -2 231 -17 19 -23 18 -346 -2 -384 -7 -13 -67 -80 -135 -149
-127 -131 -171 -198 -182 -279 -12 -85 39 -181 116 -220 20 -11 100 -40 177
-66 76 -25 149 -53 162 -61 l23 -15 -7 -257 -6 -257 -35 -65 c-50 -93 -85
-133 -172 -199 -90 -69 -142 -124 -172 -183 -34 -66 -40 -94 -48 -218 -6 -110
-8 -118 -40 -162 -39 -55 -114 -109 -226 -166 -178 -89 -348 -132 -521 -132
-102 0 -106 -1 -185 -41 -60 -30 -79 -44 -75 -55 3 -9 6 -85 6 -170 l0 -154
43 0 c30 0 64 11 117 40 69 37 81 39 156 40 164 0 381 57 582 151 222 104 358
221 434 376 39 79 41 89 45 191 3 59 9 119 14 133 6 14 48 54 95 89 127 93
243 251 302 407 24 65 25 81 32 358 8 303 3 371 -31 435 -45 85 -113 138 -244
189 -52 21 -98 41 -102 44 -3 4 23 38 59 75 81 83 121 145 150 231 20 61 22
84 23 311 l0 245 -34 63 c-60 110 -168 188 -295 211 -33 6 -155 11 -271 11
-116 0 -214 2 -217 5 -3 3 2 32 12 63 16 51 17 88 13 332 -2 151 0 281 4 287
5 7 63 24 129 37 393 80 825 223 1116 370 67 33 123 66 125 72 2 6 -396 357
-884 780 -488 423 -902 782 -920 797 l-33 29 -72 -30 c-128 -53 -191 -66 -333
-66 -146 -1 -193 9 -299 62 -137 67 -229 183 -396 490 -165 306 -507 1020
-842 1757 -389 854 -391 861 -392 1080 0 106 4 145 23 210 60 213 178 356 378
455 l82 41 5 52 c3 29 10 295 16 592 10 510 21 993 36 1543 l6 242 -58 -1
c-33 -1 -81 -5 -109 -9z"/>
<path d="M2346 12759 c-3 -13 -10 -175 -16 -359 -6 -184 -15 -441 -20 -570
-17 -446 -33 -1165 -27 -1280 5 -104 8 -116 29 -133 31 -26 107 -18 221 24
118 42 196 95 300 201 87 89 87 90 87 141 0 29 7 214 15 412 50 1242 49 1208
29 1251 -64 137 -358 317 -541 331 -70 6 -72 5 -77 -18z"/>
<path d="M4353 6672 c-139 -64 -253 -120 -253 -124 0 -4 424 -379 942 -833
755 -661 944 -822 951 -809 29 52 189 498 194 540 7 60 -7 108 -51 182 -24 42
-94 109 -321 306 -885 768 -987 844 -1142 852 l-68 3 -252 -117z"/>
</g>
</svg>
